<svg width="21" height="17" viewBox="0 0 21 17" fill="none" xmlns="http://www.w3.org/2000/svg">
<path d="M18.75 0H2.08333C0.927083 0 0.0104167 0.927083 0.0104167 2.08333L0 14.5833C0 15.7396 0.927083 16.6667 2.08333 16.6667H18.75C19.9063 16.6667 20.8333 15.7396 20.8333 14.5833V2.08333C20.8333 0.927083 19.9063 0 18.75 0ZM17.7083 14.5833H3.125C2.55208 14.5833 2.08333 14.1146 2.08333 13.5417V8.33333H18.75V13.5417C18.75 14.1146 18.2813 14.5833 17.7083 14.5833ZM18.75 4.16667H2.08333V2.08333H18.75V4.16667Z" fill="url(#paint0_linear_235_107)"/>
<defs>
<linearGradient id="paint0_linear_235_107" x1="10.4167" y1="0" x2="10.4167" y2="16.6667" gradientUnits="userSpaceOnUse">
<stop offset="0.5697" stop-color="#06075B"/>
<stop offset="0.5698" stop-color="white"/>
</linearGradient>
</defs>
</svg>
