<svg width="25" height="25" viewBox="0 0 25 25" fill="none" xmlns="http://www.w3.org/2000/svg">
<path d="M21.875 7.58333V5.20833C21.875 4.0625 20.9375 3.125 19.7917 3.125H5.20833C4.05208 3.125 3.125 4.0625 3.125 5.20833V19.7917C3.125 20.9375 4.05208 21.875 5.20833 21.875H19.7917C20.9375 21.875 21.875 20.9375 21.875 19.7917V17.4167C22.4896 17.0521 22.9167 16.3958 22.9167 15.625V9.375C22.9167 8.60417 22.4896 7.94792 21.875 7.58333ZM20.8333 9.375V15.625H13.5417V9.375H20.8333ZM5.20833 19.7917V5.20833H19.7917V7.29167H13.5417C12.3958 7.29167 11.4583 8.22917 11.4583 9.375V15.625C11.4583 16.7708 12.3958 17.7083 13.5417 17.7083H19.7917V19.7917H5.20833Z" fill="url(#paint0_linear_235_101)"/>
<path d="M16.6665 14.0625C17.5294 14.0625 18.229 13.3629 18.229 12.5C18.229 11.6371 17.5294 10.9375 16.6665 10.9375C15.8036 10.9375 15.104 11.6371 15.104 12.5C15.104 13.3629 15.8036 14.0625 16.6665 14.0625Z" fill="url(#paint1_linear_235_101)"/>
<defs>
<linearGradient id="paint0_linear_235_101" x1="13.0208" y1="3.125" x2="13.0208" y2="21.875" gradientUnits="userSpaceOnUse">
<stop offset="0.5697" stop-color="#06075B"/>
<stop offset="0.5698" stop-color="white"/>
</linearGradient>
<linearGradient id="paint1_linear_235_101" x1="16.6665" y1="10.9375" x2="16.6665" y2="14.0625" gradientUnits="userSpaceOnUse">
<stop offset="0.5697" stop-color="#06075B"/>
<stop offset="0.5698" stop-color="white"/>
</linearGradient>
</defs>
</svg>
