<svg width="3" height="16" viewBox="0 0 3 16" fill="none" xmlns="http://www.w3.org/2000/svg">
<path d="M0.107143 2.93878H2.89286C2.95203 2.93878 3 2.64641 3 2.28571V0.653061C3 0.292367 2.95203 0 2.89286 0H0.107143C0.0479665 0 0 0.292367 0 0.653061V2.28571C0 2.64641 0.0479665 2.93878 0.107143 2.93878ZM0.107143 9.46939H2.89286C2.95203 9.46939 3 9.17702 3 8.81633V7.18367C3 6.82298 2.95203 6.53061 2.89286 6.53061H0.107143C0.0479665 6.53061 0 6.82298 0 7.18367V8.81633C0 9.17702 0.0479665 9.46939 0.107143 9.46939ZM0.107143 16H2.89286C2.95203 16 3 15.7076 3 15.3469V13.7143C3 13.3536 2.95203 13.0612 2.89286 13.0612H0.107143C0.0479665 13.0612 0 13.3536 0 13.7143V15.3469C0 15.7076 0.0479665 16 0.107143 16Z" fill="#DCE6EE"/>
</svg>
