<svg width="30" height="30" viewBox="0 0 30 30" fill="none" xmlns="http://www.w3.org/2000/svg">
<circle cx="15" cy="15" r="15" fill="#D9D9D9"/>
<mask id="path-3-inside-1_27_285" fill="white">
<path d="M9.7264 6.88135L8.60693 8.11865L14.3805 14.5L8.60693 20.8813L9.7264 22.1187L15.5 15.7373L21.2736 22.1187L22.3931 20.8813L16.6195 14.5L22.3931 8.11865L21.2736 6.88135L15.5 13.2627L9.7264 6.88135Z"/>
</mask>
<path d="M9.7264 6.88135L8.60693 8.11865L14.3805 14.5L8.60693 20.8813L9.7264 22.1187L15.5 15.7373L21.2736 22.1187L22.3931 20.8813L16.6195 14.5L22.3931 8.11865L21.2736 6.88135L15.5 13.2627L9.7264 6.88135Z" fill="#999999"/>
<path d="M9.7264 6.88135L16.4002 0.843128L9.7264 -6.5332L3.05258 0.843128L9.7264 6.88135ZM8.60693 8.11865L1.93311 2.08043L-3.53004 8.11865L1.93311 14.1569L8.60693 8.11865ZM14.3805 14.5L21.0544 20.5382L26.5175 14.5L21.0544 8.46178L14.3805 14.5ZM8.60693 20.8813L1.93311 14.8431L-3.53004 20.8813L1.93311 26.9196L8.60693 20.8813ZM9.7264 22.1187L3.05258 28.1569L9.7264 35.5332L16.4002 28.1569L9.7264 22.1187ZM15.5 15.7373L22.1738 9.69908L15.5 2.32275L8.82618 9.69908L15.5 15.7373ZM21.2736 22.1187L14.5998 28.1569L21.2736 35.5332L27.9474 28.1569L21.2736 22.1187ZM22.3931 20.8813L29.0669 26.9196L34.53 20.8813L29.0669 14.8431L22.3931 20.8813ZM16.6195 14.5L9.94564 8.46178L4.48249 14.5L9.94564 20.5382L16.6195 14.5ZM22.3931 8.11865L29.0669 14.1569L34.53 8.11865L29.0669 2.08043L22.3931 8.11865ZM21.2736 6.88135L27.9474 0.843128L21.2736 -6.5332L14.5998 0.843128L21.2736 6.88135ZM15.5 13.2627L8.82618 19.3009L15.5 26.6772L22.1738 19.3009L15.5 13.2627ZM3.05258 0.843128L1.93311 2.08043L15.2808 14.1569L16.4002 12.9196L3.05258 0.843128ZM1.93311 14.1569L7.70671 20.5382L21.0544 8.46178L15.2808 2.08043L1.93311 14.1569ZM7.70671 8.46178L1.93311 14.8431L15.2808 26.9196L21.0544 20.5382L7.70671 8.46178ZM1.93311 26.9196L3.05258 28.1569L16.4002 16.0804L15.2808 14.8431L1.93311 26.9196ZM16.4002 28.1569L22.1738 21.7755L8.82618 9.69908L3.05258 16.0804L16.4002 28.1569ZM8.82618 21.7755L14.5998 28.1569L27.9474 16.0804L22.1738 9.69908L8.82618 21.7755ZM27.9474 28.1569L29.0669 26.9196L15.7192 14.8431L14.5998 16.0804L27.9474 28.1569ZM29.0669 14.8431L23.2933 8.46178L9.94564 20.5382L15.7192 26.9196L29.0669 14.8431ZM23.2933 20.5382L29.0669 14.1569L15.7192 2.08043L9.94564 8.46178L23.2933 20.5382ZM29.0669 2.08043L27.9474 0.843128L14.5998 12.9196L15.7192 14.1569L29.0669 2.08043ZM14.5998 0.843128L8.82618 7.22448L22.1738 19.3009L27.9474 12.9196L14.5998 0.843128ZM22.1738 7.22448L16.4002 0.843128L3.05258 12.9196L8.82618 19.3009L22.1738 7.22448Z" fill="black" mask="url(#path-3-inside-1_27_285)"/>
</svg>
