<svg width="27" height="23" viewBox="0 0 27 23" fill="none" xmlns="http://www.w3.org/2000/svg">
<rect width="27" height="23" rx="8" fill="#171046"/>
<path d="M17.2498 10.72C17.1298 10.72 16.9631 10.72 16.7498 10.72C16.5364 10.72 16.3031 10.72 16.0498 10.72C15.8098 10.7067 15.5698 10.7 15.3298 10.7C15.0898 10.7 14.8831 10.7 14.7098 10.7L14.7898 11.52C14.7898 11.56 14.7698 11.6133 14.7298 11.68C14.6898 11.7467 14.6431 11.82 14.5898 11.9C14.5364 11.98 14.4831 12.06 14.4298 12.14C14.3764 12.22 14.3431 12.28 14.3298 12.32C14.3031 12.3733 14.3098 12.4933 14.3498 12.68C14.4031 12.8667 14.3964 13.0333 14.3298 13.18C14.3564 13.2467 14.3631 13.3333 14.3498 13.44C14.3498 13.5467 14.3364 13.6533 14.3098 13.76C14.2964 13.8667 14.2764 13.9667 14.2498 14.06C14.2364 14.1533 14.2298 14.22 14.2298 14.26C14.2298 14.3 14.2298 14.3333 14.2298 14.36C14.2431 14.3733 14.2498 14.3933 14.2498 14.42C14.2631 14.4467 14.2764 14.4933 14.2898 14.56C14.3164 14.6133 14.3431 14.7067 14.3698 14.84C14.3831 14.8933 14.3831 14.98 14.3698 15.1C14.3698 15.22 14.3564 15.44 14.3298 15.76C14.3164 15.8933 14.3031 15.98 14.2898 16.02C14.2764 16.0467 14.2631 16.0733 14.2498 16.1C14.2364 16.1267 14.2231 16.1733 14.2098 16.24C14.2098 16.2933 14.2098 16.4133 14.2098 16.6L13.9498 17.54L14.0098 17.76L13.6698 18.96C13.4831 18.9867 13.3031 19.0067 13.1298 19.02C12.9564 19.0467 12.7831 19.0733 12.6098 19.1C12.3298 19.14 12.0564 19.1733 11.7898 19.2C11.5364 19.2267 11.3564 19.24 11.2498 19.24C11.1431 19.24 11.0964 19.12 11.1098 18.88C11.1231 18.64 11.1631 18.3733 11.2298 18.08C11.2964 17.7067 11.3964 17.32 11.5298 16.92C11.5164 16.8667 11.5098 16.8333 11.5098 16.82C11.5231 16.7933 11.5298 16.76 11.5298 16.72C11.5431 16.68 11.5564 16.6133 11.5698 16.52C11.5964 16.4267 11.6164 16.2733 11.6298 16.06C11.6698 15.62 11.6964 15.3 11.7098 15.1C11.7364 14.8867 11.7498 14.7267 11.7498 14.62C11.7498 14.58 11.7431 14.5133 11.7298 14.42C11.7298 14.3267 11.7164 14.2533 11.6898 14.2L11.7698 12.48C11.9031 12.4 11.9498 12.3133 11.9098 12.22C11.8698 12.1267 11.8698 12.0533 11.9098 12C11.9498 11.8667 11.9831 11.7267 12.0098 11.58C12.0498 11.4333 12.0964 11.16 12.1498 10.76L11.7298 10.68C11.6498 10.6533 11.5698 10.6467 11.4898 10.66C11.3164 10.6733 11.0431 10.7867 10.6698 11L9.98977 10.5C9.86977 10.3933 9.83643 10.26 9.88977 10.1C9.95643 9.92667 10.0631 9.76667 10.2098 9.62L11.6498 9.42L12.2098 9.38C12.3031 9.48667 12.3831 9.54667 12.4498 9.56C12.5164 9.56 12.5698 9.54 12.6098 9.5C12.6631 9.46 12.7031 9.4 12.7298 9.32C12.7564 9.24 12.7764 9.16667 12.7898 9.1C12.7898 9.07333 12.7898 9.05333 12.7898 9.04C12.8031 9.01333 12.8098 8.99333 12.8098 8.98V8.94C12.8098 8.92667 12.8031 8.86667 12.7898 8.76C12.7764 8.65333 12.7164 8.56667 12.6098 8.5C12.5698 8.47333 12.5031 8.42 12.4098 8.34C12.3164 8.26 12.2698 8.21333 12.2698 8.2C12.3098 8.09333 12.3298 7.97333 12.3298 7.84C12.3431 7.70667 12.3498 7.56667 12.3498 7.42L12.6298 6.88C12.6564 6.84 12.6964 6.78 12.7498 6.7C12.8031 6.62 12.8831 6.52667 12.9898 6.42L13.3098 6.12L14.5498 5.42L16.7898 5.48L17.8298 6.28L17.8098 6.6L17.3298 7.04L17.0898 7.02L16.6498 6.48C16.4764 6.36 16.3031 6.3 16.1298 6.3C15.9564 6.28667 15.7898 6.32 15.6298 6.4C15.4831 6.48 15.3431 6.59333 15.2098 6.74C15.0764 6.88667 14.9564 7.05333 14.8498 7.24V7.32C14.8498 7.44 14.8564 7.52 14.8698 7.56C14.8831 7.76 14.9031 7.87333 14.9298 7.9C14.9298 8.06 14.8898 8.24 14.8098 8.44C14.7431 8.64 14.7164 8.94 14.7298 9.34H16.3498C16.5364 9.42 16.9231 9.44667 17.5098 9.42C17.6164 9.42 17.7031 9.42 17.7698 9.42C17.8498 9.40667 17.9231 9.4 17.9898 9.4L18.1498 9.8L17.8498 10.4L17.2498 10.72Z" fill="white"/>
</svg>
