<svg width="27" height="23" viewBox="0 0 27 23" fill="none" xmlns="http://www.w3.org/2000/svg">
<rect width="27" height="23" rx="8" fill="#171046"/>
<path d="M17.6202 5.58C17.6469 5.72667 17.7069 5.82 17.8002 5.86C17.9069 5.9 17.9669 5.95333 17.9802 6.02C18.0069 6.16667 18.0402 6.28667 18.0802 6.38C18.1336 6.47333 18.2269 6.56 18.3602 6.64C18.5069 6.72 18.5936 6.82667 18.6202 6.96C18.6469 7.08 18.7136 7.2 18.8202 7.32C18.8336 7.37333 18.8336 7.44667 18.8202 7.54C18.8202 7.63333 18.8069 7.72667 18.7802 7.82C18.7669 7.9 18.7469 7.98 18.7202 8.06C18.6936 8.14 18.6736 8.18667 18.6602 8.2C18.6469 8.24 18.6336 8.28 18.6202 8.32C18.6069 8.36 18.5869 8.40667 18.5602 8.46C18.5336 8.52667 18.4936 8.61333 18.4402 8.72C18.4002 8.81333 18.3469 8.92 18.2802 9.04C18.0402 9.50667 17.8402 9.80667 17.6802 9.94C17.6669 9.96667 17.6002 9.98 17.4802 9.98C17.3736 9.98 17.2536 9.98667 17.1202 10C16.9869 10.0133 16.8669 10.04 16.7602 10.08C16.6536 10.12 16.6002 10.1933 16.6002 10.3C16.5069 10.3267 16.4669 10.3733 16.4802 10.44C16.5069 10.4933 16.5469 10.5533 16.6002 10.62C16.6669 10.6867 16.7269 10.7533 16.7802 10.82C16.8336 10.8733 16.8469 10.9067 16.8202 10.92C17.0469 10.9733 17.3069 10.9933 17.6002 10.98C17.8936 10.9667 18.1336 10.96 18.3202 10.96C18.4002 11.1067 18.4936 11.22 18.6002 11.3C18.7069 11.3667 18.8669 11.4 19.0802 11.4L20.2802 12.86L20.2202 14.82L19.5802 15.62C19.1136 15.62 18.6936 15.84 18.3202 16.28L17.7802 16.94C17.6336 17.0067 17.4402 17.0533 17.2002 17.08C16.9602 17.0933 16.5669 17.1 16.0202 17.1C15.6602 17.1 15.3069 17.0933 14.9602 17.08C14.6269 17.0667 14.3202 17.06 14.0402 17.06C13.7736 17.06 13.5536 17.0667 13.3802 17.08C13.2202 17.08 13.1402 17.1 13.1402 17.14C12.9269 17.1 12.7669 17.0867 12.6602 17.1C12.5536 17.1133 12.4602 17.1067 12.3802 17.08L10.3602 17.46L9.86023 17.04C9.87357 16.92 9.89357 16.78 9.92023 16.62C9.9869 16.4067 10.0269 16.2267 10.0402 16.08C10.0669 15.92 10.0802 15.7867 10.0802 15.68C10.0802 15.6533 10.0736 15.6 10.0602 15.52C10.0469 15.4267 10.0202 15.3533 9.98023 15.3L10.0602 14.08C10.2736 14.12 10.4602 14.08 10.6202 13.96L10.7602 13.56C10.6536 13.3733 10.5802 13.2333 10.5402 13.14C10.5002 13.0333 10.3869 12.98 10.2002 12.98L10.0802 11.74C10.1469 11.7267 10.1936 11.6933 10.2202 11.64C10.2469 11.5867 10.2602 11.5333 10.2602 11.48L10.2802 11.32C10.3069 11.2533 10.3336 11.2133 10.3602 11.2C10.4269 11.0133 10.4802 10.76 10.5202 10.44C10.5602 10.1067 10.6002 9.71333 10.6402 9.26C10.6936 8.79333 10.7269 8.39333 10.7402 8.06C10.7669 7.72667 10.7802 7.52 10.7802 7.44C10.7802 7.42667 10.7602 7.22667 10.7202 6.84C10.6802 6.46667 10.5002 6.18 10.1802 5.98V4.9C10.2469 4.79333 10.4536 4.74 10.8002 4.74C10.8936 4.72667 10.9736 4.72 11.0402 4.72C11.1202 4.72 11.1869 4.72 11.2402 4.72H11.4402C11.5202 4.72 11.6802 4.72 11.9202 4.72C12.1736 4.70667 12.3936 4.68 12.5802 4.64C12.6202 4.61333 12.7002 4.58 12.8202 4.54C12.9402 4.5 13.0136 4.48 13.0402 4.48L15.3402 4.54C15.3536 4.63333 15.3936 4.72 15.4602 4.8C15.5402 4.86667 15.6269 4.93333 15.7202 5C15.8136 5.05333 15.9002 5.1 15.9802 5.14C16.0736 5.18 16.1402 5.21333 16.1802 5.24C16.3136 5.24 16.4269 5.24667 16.5202 5.26C16.6136 5.26 16.7002 5.26667 16.7802 5.28C16.9002 5.29333 17.0869 5.29333 17.3402 5.28L17.6202 5.58ZM13.0402 15.74L15.7002 15.96C15.8736 15.92 16.0202 15.88 16.1402 15.84C16.2736 15.8 16.4002 15.7467 16.5202 15.68C16.6402 15.6 16.7669 15.4933 16.9002 15.36C17.0469 15.2267 17.2202 15.0467 17.4202 14.82L17.8002 13.6L17.3002 12.12L14.5202 11.14L13.4402 11.12C13.2536 11.1867 13.1202 11.32 13.0402 11.52C12.9602 11.7067 12.9202 11.9 12.9202 12.1C12.9336 12.5 12.9602 12.68 13.0002 12.64C13.0136 12.6933 12.9869 12.82 12.9202 13.02C12.8669 13.2067 12.8336 13.4733 12.8202 13.82C12.8069 13.9933 12.8002 14.1467 12.8002 14.28C12.8002 14.4133 12.8002 14.5267 12.8002 14.62V14.94L12.7802 15.36L13.0402 15.74ZM13.2602 6.32L13.2802 7.06L13.0002 7.52L13.2602 8.24V9.5L13.5602 9.82H14.0602C14.2069 9.80667 14.3402 9.81333 14.4602 9.84C14.5936 9.85333 14.6736 9.86 14.7002 9.86C14.8469 9.86 14.9469 9.83333 15.0002 9.78C15.0669 9.71333 15.1069 9.68 15.1202 9.68C15.1602 9.68 15.2336 9.71333 15.3402 9.78L15.7402 9.52C15.7136 9.4 15.7136 9.28 15.7402 9.16C15.7536 9.05333 15.7736 8.94667 15.8002 8.84C15.8269 8.72 15.8802 8.60667 15.9602 8.5C16.0936 8.3 16.1802 8.15333 16.2202 8.06C16.2736 7.95333 16.3202 7.83333 16.3602 7.7C16.3202 7.5 16.2602 7.34 16.1802 7.22C16.1136 7.08667 16.0402 6.98 15.9602 6.9C15.8802 6.80667 15.8069 6.72667 15.7402 6.66C15.6869 6.59333 15.6536 6.52 15.6402 6.44C15.5336 6.32 15.4536 6.18667 15.4002 6.04C15.3469 5.89333 15.3002 5.82 15.2602 5.82L14.4802 5.66L13.6602 5.84L13.2602 6.32Z" fill="white"/>
</svg>
