<svg width="31" height="31" viewBox="0 0 31 31" fill="none" xmlns="http://www.w3.org/2000/svg">
<path d="M19.9621 16.6812L7.57283 4.3C7.00372 3.73125 6.08438 3.73125 5.51526 4.3L1.38552 8.42708C0.8164 8.99583 0.8164 9.91458 1.38552 10.4833L13.7747 22.8646C14.3439 23.4333 15.2632 23.4333 15.8323 22.8646L19.9621 18.7375C20.5312 18.1687 20.5312 17.25 19.9621 16.6812Z" fill="white"/>
<path d="M20.9914 21.8321L18.9277 23.8945L25.1188 30.0816L27.1826 28.0192L20.9914 21.8321Z" fill="white"/>
<path d="M24.9966 11.125C27.8173 11.125 30.104 8.83978 30.104 6.02083C30.104 3.20188 27.8173 0.916664 24.9966 0.916664C22.1758 0.916664 19.8891 3.20188 19.8891 6.02083C19.8891 8.83978 22.1758 11.125 24.9966 11.125Z" fill="white"/>
</svg>
