<svg width="25" height="25" viewBox="0 0 25 25" fill="none" xmlns="http://www.w3.org/2000/svg">
<path d="M9.375 11.4584H7.29167V13.5417H9.375V11.4584ZM13.5417 11.4584H11.4583V13.5417H13.5417V11.4584ZM17.7083 11.4584H15.625V13.5417H17.7083V11.4584ZM19.7917 4.16671H18.75V2.08337H16.6667V4.16671H8.33333V2.08337H6.25V4.16671H5.20833C4.05208 4.16671 3.13542 5.10421 3.13542 6.25004L3.125 20.8334C3.125 21.9792 4.05208 22.9167 5.20833 22.9167H19.7917C20.9375 22.9167 21.875 21.9792 21.875 20.8334V6.25004C21.875 5.10421 20.9375 4.16671 19.7917 4.16671ZM19.7917 20.8334H5.20833V9.37504H19.7917V20.8334Z" fill="url(#paint0_linear_235_82)"/>
<defs>
<linearGradient id="paint0_linear_235_82" x1="12.5" y1="2.08337" x2="12.5" y2="22.9167" gradientUnits="userSpaceOnUse">
<stop offset="0.512408" stop-color="#06095D"/>
<stop offset="0.554075" stop-color="white"/>
<stop offset="1" stop-color="white"/>
</linearGradient>
</defs>
</svg>
