<svg width="26" height="23" viewBox="0 0 26 23" fill="none" xmlns="http://www.w3.org/2000/svg">
<path d="M12.1695 6.59364L4.16732 14.0514V22.1005C4.16732 22.3089 4.24048 22.5087 4.37072 22.6561C4.50095 22.8035 4.67758 22.8863 4.86176 22.8863L9.72548 22.872C9.90905 22.871 10.0848 22.7877 10.2143 22.6405C10.3438 22.4932 10.4165 22.2939 10.4164 22.0862V17.3856C10.4164 17.1772 10.4896 16.9774 10.6198 16.83C10.7501 16.6826 10.9267 16.5998 11.1109 16.5998H13.8887C14.0728 16.5998 14.2495 16.6826 14.3797 16.83C14.51 16.9774 14.5831 17.1772 14.5831 17.3856V22.0828C14.5828 22.1862 14.6006 22.2886 14.6354 22.3842C14.6701 22.4799 14.7212 22.5668 14.7857 22.64C14.8503 22.7132 14.9269 22.7713 15.0113 22.811C15.0957 22.8506 15.1862 22.871 15.2776 22.871L20.1395 22.8863C20.3237 22.8863 20.5004 22.8035 20.6306 22.6561C20.7608 22.5087 20.834 22.3089 20.834 22.1005V14.046L12.8335 6.59364C12.7395 6.50785 12.6223 6.46107 12.5015 6.46107C12.3807 6.46107 12.2635 6.50785 12.1695 6.59364ZM24.8097 11.6626L21.1812 8.2782V1.47561C21.1812 1.31931 21.1263 1.1694 21.0287 1.05888C20.931 0.948353 20.7985 0.886261 20.6604 0.886261H18.2298C18.0917 0.886261 17.9592 0.948353 17.8615 1.05888C17.7639 1.1694 17.709 1.31931 17.709 1.47561V5.04168L13.8231 1.42404C13.4502 1.07681 12.9823 0.886955 12.4993 0.886955C12.0164 0.886955 11.5485 1.07681 11.1756 1.42404L0.189019 11.6626C0.136279 11.7119 0.0926449 11.7725 0.0606102 11.8409C0.0285755 11.9093 0.00876769 11.9842 0.00231864 12.0613C-0.0041304 12.1384 0.00290567 12.2161 0.0230248 12.2901C0.043144 12.3641 0.0759519 12.4329 0.119574 12.4926L1.22634 14.015C1.26985 14.0749 1.32336 14.1245 1.38381 14.1609C1.44426 14.1973 1.51047 14.2199 1.57864 14.2273C1.64681 14.2348 1.71561 14.2269 1.7811 14.2042C1.84659 14.1815 1.90748 14.1445 1.96029 14.0951L12.1695 4.58002C12.2635 4.49423 12.3807 4.44745 12.5015 4.44745C12.6223 4.44745 12.7395 4.49423 12.8335 4.58002L23.0432 14.0951C23.0959 14.1445 23.1567 14.1816 23.2221 14.2044C23.2875 14.2271 23.3562 14.2351 23.4243 14.2278C23.4924 14.2205 23.5586 14.1981 23.6191 14.1618C23.6795 14.1256 23.7331 14.0762 23.7767 14.0165L24.8835 12.494C24.927 12.434 24.9597 12.3649 24.9796 12.2906C24.9995 12.2162 25.0062 12.1382 24.9993 12.0609C24.9925 11.9837 24.9722 11.9087 24.9396 11.8403C24.9071 11.772 24.8629 11.7115 24.8097 11.6626Z" fill="white"/>
</svg>
