<svg width="24" height="24" viewBox="0 0 24 24" fill="none" xmlns="http://www.w3.org/2000/svg">
<path d="M13.6203 3.85843L15.3856 5.78766H19.2923V17.363H3.85843V5.78766H7.76512L9.53036 3.85843H13.6203ZM14.4692 1.9292H8.6815L6.91626 3.85843H3.85843C2.79735 3.85843 1.9292 4.72658 1.9292 5.78766V17.363C1.9292 18.4241 2.79735 19.2923 3.85843 19.2923H19.2923C20.3533 19.2923 21.2215 18.4241 21.2215 17.363V5.78766C21.2215 4.72658 20.3533 3.85843 19.2923 3.85843H16.2344L14.4692 1.9292ZM11.5753 8.6815C13.167 8.6815 14.4692 9.98373 14.4692 11.5753C14.4692 13.167 13.167 14.4692 11.5753 14.4692C9.98373 14.4692 8.6815 13.167 8.6815 11.5753C8.6815 9.98373 9.98373 8.6815 11.5753 8.6815ZM11.5753 6.75227C8.91301 6.75227 6.75227 8.91301 6.75227 11.5753C6.75227 14.2377 8.91301 16.3984 11.5753 16.3984C14.2377 16.3984 16.3984 14.2377 16.3984 11.5753C16.3984 8.91301 14.2377 6.75227 11.5753 6.75227Z" fill="#E5A62C"/>
</svg>
