<svg width="27" height="34" viewBox="0 0 27 34" fill="none" xmlns="http://www.w3.org/2000/svg">
<path d="M21 0.278442L27 8.65705L21 17.0357V10.7517H15V6.5624H21V0.278442ZM10.5 6.5624C9.675 6.5624 9 7.50499 9 8.65705C9 9.80911 9.675 10.7517 10.5 10.7517C11.325 10.7517 12 9.80911 12 8.65705C12 7.50499 11.325 6.5624 10.5 6.5624ZM4.5 6.5624C3.675 6.5624 3 7.50499 3 8.65705C3 9.80911 3.675 10.7517 4.5 10.7517C5.325 10.7517 6 9.80911 6 8.65705C6 7.50499 5.325 6.5624 4.5 6.5624ZM6 27.5089H12V23.3196H6V17.0357L0 25.4143L6 33.7929V27.5089ZM16.5 27.5089C17.325 27.5089 18 26.5663 18 25.4143C18 24.2622 17.325 23.3196 16.5 23.3196C15.675 23.3196 15 24.2622 15 25.4143C15 26.5663 15.675 27.5089 16.5 27.5089ZM22.5 27.5089C23.325 27.5089 24 26.5663 24 25.4143C24 24.2622 23.325 23.3196 22.5 23.3196C21.675 23.3196 21 24.2622 21 25.4143C21 26.5663 21.675 27.5089 22.5 27.5089Z" fill="white"/>
</svg>
