<svg width="25" height="25" viewBox="0 0 25 25" fill="none" xmlns="http://www.w3.org/2000/svg">
<path d="M12.4998 6.24996C13.6457 6.24996 14.5832 7.18746 14.5832 8.33329C14.5832 9.47913 13.6457 10.4166 12.4998 10.4166C11.354 10.4166 10.4165 9.47913 10.4165 8.33329C10.4165 7.18746 11.354 6.24996 12.4998 6.24996ZM12.4998 16.6666C15.3123 16.6666 18.5415 18.0104 18.7498 18.75H6.24984C6.48942 18 9.69775 16.6666 12.4998 16.6666ZM12.4998 4.16663C10.1978 4.16663 8.33317 6.03121 8.33317 8.33329C8.33317 10.6354 10.1978 12.5 12.4998 12.5C14.8019 12.5 16.6665 10.6354 16.6665 8.33329C16.6665 6.03121 14.8019 4.16663 12.4998 4.16663ZM12.4998 14.5833C9.71859 14.5833 4.1665 15.9791 4.1665 18.75V20.8333H20.8332V18.75C20.8332 15.9791 15.2811 14.5833 12.4998 14.5833Z" fill="url(#paint0_linear_235_85)"/>
<defs>
<linearGradient id="paint0_linear_235_85" x1="12.4998" y1="4.16663" x2="12.4998" y2="20.8333" gradientUnits="userSpaceOnUse">
<stop offset="0.512408" stop-color="#06095D"/>
<stop offset="0.554075" stop-color="white"/>
<stop offset="1" stop-color="white"/>
</linearGradient>
</defs>
</svg>
