<svg width="16" height="15" viewBox="0 0 16 15" fill="none" xmlns="http://www.w3.org/2000/svg">
<path d="M14.9776 12.9685L12.0206 10.0478C11.8872 9.91602 11.7062 9.84279 11.5164 9.84279H11.033C11.8516 8.80871 12.338 7.50806 12.338 6.09316C12.338 2.72727 9.57675 0 6.16898 0C2.76121 0 0 2.72727 0 6.09316C0 9.45904 2.76121 12.1863 6.16898 12.1863C7.60149 12.1863 8.91833 11.7059 9.96528 10.8974V11.3749C9.96528 11.5623 10.0394 11.741 10.1729 11.8729L13.1298 14.7935C13.4086 15.0688 13.8594 15.0688 14.1353 14.7935L14.9746 13.9645C15.2534 13.6891 15.2534 13.2438 14.9776 12.9685ZM6.16898 9.84279C4.07212 9.84279 2.37269 8.16717 2.37269 6.09316C2.37269 4.02207 4.06916 2.34352 6.16898 2.34352C8.26584 2.34352 9.96528 4.01914 9.96528 6.09316C9.96528 8.16424 8.26881 9.84279 6.16898 9.84279Z" fill="#999999"/>
</svg>
