<svg width="26" height="28" viewBox="0 0 26 28" fill="none" xmlns="http://www.w3.org/2000/svg">
<path d="M24.2322 16.1722C25.7703 11.9283 25.0037 6.88262 21.9275 3.44063C17.8308 -1.14688 11.1853 -1.14688 7.08863 3.44063L4.35425 6.50078L14.6814 18.0377C16.9324 14.6503 21.1023 13.8157 24.2322 16.1722ZM13.5925 20.5197L2.83082 8.50271C1.49781 10.9737 1.77125 14.2303 3.67554 16.3631L5.36011 18.2505L0.330817 23.1271C-0.0891052 23.5362 -0.113519 24.2562 0.281989 24.6981L2.88941 27.6164C3.28004 28.0582 3.92457 28.031 4.29078 27.5619L8.65113 21.927L10.3943 23.8744C11.3562 24.949 12.572 25.5381 13.8269 25.6909C13.4802 24.7635 13.2898 23.7489 13.2898 22.6852C13.2849 21.9325 13.4119 21.2124 13.5925 20.5197ZM20.3162 17.4541C17.7283 17.4541 15.6287 19.7996 15.6287 22.6907C15.6287 25.5818 17.7283 27.9273 20.3162 27.9273C22.9041 27.9273 25.0037 25.5818 25.0037 22.6907C25.0037 19.7996 22.9041 17.4541 20.3162 17.4541Z" fill="white"/>
</svg>
