<svg width="20" height="20" viewBox="0 0 20 20" fill="none" xmlns="http://www.w3.org/2000/svg">
<path d="M17.7778 0H2.22222C1 0 0 1 0 2.22222V17.7778C0 19 1 20 2.22222 20H17.7778C19 20 20 19 20 17.7778V2.22222C20 1 19 0 17.7778 0ZM5 16.6667C4.07778 16.6667 3.33333 15.9222 3.33333 15C3.33333 14.0778 4.07778 13.3333 5 13.3333C5.92222 13.3333 6.66667 14.0778 6.66667 15C6.66667 15.9222 5.92222 16.6667 5 16.6667ZM5 6.66667C4.07778 6.66667 3.33333 5.92222 3.33333 5C3.33333 4.07778 4.07778 3.33333 5 3.33333C5.92222 3.33333 6.66667 4.07778 6.66667 5C6.66667 5.92222 5.92222 6.66667 5 6.66667ZM10 11.6667C9.07778 11.6667 8.33333 10.9222 8.33333 10C8.33333 9.07778 9.07778 8.33333 10 8.33333C10.9222 8.33333 11.6667 9.07778 11.6667 10C11.6667 10.9222 10.9222 11.6667 10 11.6667ZM15 16.6667C14.0778 16.6667 13.3333 15.9222 13.3333 15C13.3333 14.0778 14.0778 13.3333 15 13.3333C15.9222 13.3333 16.6667 14.0778 16.6667 15C16.6667 15.9222 15.9222 16.6667 15 16.6667ZM15 6.66667C14.0778 6.66667 13.3333 5.92222 13.3333 5C13.3333 4.07778 14.0778 3.33333 15 3.33333C15.9222 3.33333 16.6667 4.07778 16.6667 5C16.6667 5.92222 15.9222 6.66667 15 6.66667Z" fill="white"/>
</svg>
