<svg width="25" height="24" viewBox="0 0 25 24" fill="none" xmlns="http://www.w3.org/2000/svg">
<path d="M10.9076 11.3923C10.8702 9.6334 10.494 7.89773 9.79923 6.27864C5.36564 8.32993 2.1088 12.2003 0.995522 16.7673C1.64704 18.2463 2.59184 19.5806 3.77384 20.6909C4.89789 16.8182 7.44232 13.5017 10.9076 11.3923ZM9.10588 4.89015C8.36325 3.60817 7.41686 2.45321 6.30314 1.46973C1.85978 3.87902 -0.767173 8.86694 0.199624 14.1548C1.83048 10.1345 5.00431 6.80114 9.10588 4.89015ZM18.266 12.8776C18.686 8.04933 16.933 3.32266 13.5053 0.0860779C12.7875 0.00383295 10.9858 -0.180009 8.67619 0.497303C11.5019 3.39855 13.1304 7.242 13.2416 11.2724C14.7977 12.1202 16.5032 12.6651 18.266 12.8776ZM12.1772 13.3372C10.6584 14.2508 9.32938 15.4429 8.26115 16.8495C12.2651 19.6217 17.2699 20.4828 21.811 19.1621C22.7877 17.8654 23.4887 16.3857 23.8715 14.8128C22.5803 15.1388 21.2538 15.3077 19.9213 15.3159C17.2553 15.3111 14.6039 14.6338 12.1772 13.3372ZM7.37736 18.1606C6.63517 19.4185 6.12248 20.7925 5.80998 22.2342C7.97596 23.5514 10.5065 24.1572 13.0405 23.9652C15.5745 23.7732 17.9826 22.7932 19.9213 21.165C14.4086 21.9439 9.99455 19.9652 7.37736 18.1606ZM16.1811 0.71501C18.8813 4.12092 20.2094 8.51377 19.8236 12.984C21.3112 12.9871 22.7897 12.7552 24.2035 12.297C24.2035 12.2003 24.2182 12.1035 24.2182 12.0068C24.2182 6.79146 20.8637 2.37442 16.1811 0.71501Z" fill="white"/>
</svg>
