<svg width="240" height="84" viewBox="0 0 240 84" fill="none" xmlns="http://www.w3.org/2000/svg">
<path d="M23.376 44.7706C25.328 45.1866 26.896 46.1626 28.08 47.6986C29.264 49.2026 29.856 50.9306 29.856 52.8826C29.856 55.6986 28.864 57.9386 26.88 59.6026C24.928 61.2346 22.192 62.0506 18.672 62.0506H2.976V28.3546H18.144C21.568 28.3546 24.24 29.1386 26.16 30.7066C28.112 32.2746 29.088 34.4026 29.088 37.0906C29.088 39.0746 28.56 40.7226 27.504 42.0346C26.48 43.3466 25.104 44.2586 23.376 44.7706ZM11.184 41.9866H16.56C17.904 41.9866 18.928 41.6986 19.632 41.1226C20.368 40.5146 20.736 39.6346 20.736 38.4826C20.736 37.3306 20.368 36.4506 19.632 35.8426C18.928 35.2346 17.904 34.9306 16.56 34.9306H11.184V41.9866ZM17.232 55.4266C18.608 55.4266 19.664 55.1226 20.4 54.5146C21.168 53.8746 21.552 52.9626 21.552 51.7786C21.552 50.5946 21.152 49.6666 20.352 48.9946C19.584 48.3226 18.512 47.9866 17.136 47.9866H11.184V55.4266H17.232ZM59.8646 48.2266C59.8646 48.9946 59.8166 49.7946 59.7206 50.6266H41.1446C41.2726 52.2906 41.8006 53.5706 42.7286 54.4666C43.6886 55.3306 44.8566 55.7626 46.2326 55.7626C48.2806 55.7626 49.7046 54.8986 50.5046 53.1706H59.2406C58.7926 54.9306 57.9766 56.5146 56.7926 57.9226C55.6406 59.3306 54.1846 60.4346 52.4246 61.2346C50.6646 62.0346 48.6966 62.4346 46.5206 62.4346C43.8966 62.4346 41.5606 61.8746 39.5126 60.7546C37.4646 59.6346 35.8646 58.0346 34.7126 55.9546C33.5606 53.8746 32.9846 51.4426 32.9846 48.6586C32.9846 45.8746 33.5446 43.4426 34.6646 41.3626C35.8166 39.2826 37.4166 37.6826 39.4646 36.5626C41.5126 35.4426 43.8646 34.8826 46.5206 34.8826C49.1126 34.8826 51.4166 35.4266 53.4326 36.5146C55.4486 37.6026 57.0166 39.1546 58.1366 41.1706C59.2886 43.1866 59.8646 45.5386 59.8646 48.2266ZM51.4646 46.0666C51.4646 44.6586 50.9846 43.5386 50.0246 42.7066C49.0646 41.8746 47.8646 41.4586 46.4246 41.4586C45.0486 41.4586 43.8806 41.8586 42.9206 42.6586C41.9926 43.4586 41.4166 44.5946 41.1926 46.0666H51.4646ZM79.1228 55.0906V62.0506H74.9468C71.9708 62.0506 69.6508 61.3306 67.9868 59.8906C66.3228 58.4186 65.4908 56.0346 65.4908 52.7386V42.0826H62.2268V35.2666H65.4908V28.7386H73.6988V35.2666H79.0748V42.0826H73.6988V52.8346C73.6988 53.6346 73.8908 54.2106 74.2748 54.5626C74.6588 54.9146 75.2988 55.0906 76.1948 55.0906H79.1228Z" fill="white"/>
<path d="M123.417 30.304V64H115.209V43.792L107.673 64H101.049L93.4653 43.744V64H85.2573V30.304H94.9532L104.409 53.632L113.769 30.304H123.417ZM127.688 50.56C127.688 47.808 128.2 45.392 129.224 43.312C130.28 41.232 131.704 39.632 133.496 38.512C135.288 37.392 137.288 36.832 139.496 36.832C141.384 36.832 143.032 37.216 144.44 37.984C145.88 38.752 146.984 39.76 147.752 41.008V37.216H155.96V64H147.752V60.208C146.952 61.456 145.832 62.464 144.392 63.232C142.984 64 141.336 64.384 139.448 64.384C137.272 64.384 135.288 63.824 133.496 62.704C131.704 61.552 130.28 59.936 129.224 57.856C128.2 55.744 127.688 53.312 127.688 50.56ZM147.752 50.608C147.752 48.56 147.176 46.944 146.024 45.76C144.904 44.576 143.528 43.984 141.896 43.984C140.264 43.984 138.872 44.576 137.72 45.76C136.6 46.912 136.04 48.512 136.04 50.56C136.04 52.608 136.6 54.24 137.72 55.456C138.872 56.64 140.264 57.232 141.896 57.232C143.528 57.232 144.904 56.64 146.024 55.456C147.176 54.272 147.752 52.656 147.752 50.608ZM170.106 41.68C171.066 40.208 172.266 39.056 173.706 38.224C175.146 37.36 176.746 36.928 178.506 36.928V45.616H176.25C174.202 45.616 172.666 46.064 171.642 46.96C170.618 47.824 170.106 49.36 170.106 51.568V64H161.898V37.216H170.106V41.68ZM197.357 57.04V64H193.181C190.205 64 187.885 63.28 186.221 61.84C184.557 60.368 183.725 57.984 183.725 54.688V44.032H180.461V37.216H183.725V30.688H191.933V37.216H197.309V44.032H191.933V54.784C191.933 55.584 192.125 56.16 192.509 56.512C192.893 56.864 193.533 57.04 194.429 57.04H197.357ZM212.825 64.384C210.489 64.384 208.409 63.984 206.585 63.184C204.761 62.384 203.321 61.296 202.265 59.92C201.209 58.512 200.617 56.944 200.489 55.216H208.601C208.697 56.144 209.129 56.896 209.897 57.472C210.665 58.048 211.609 58.336 212.729 58.336C213.753 58.336 214.537 58.144 215.081 57.76C215.657 57.344 215.945 56.816 215.945 56.176C215.945 55.408 215.545 54.848 214.745 54.496C213.945 54.112 212.649 53.696 210.857 53.248C208.937 52.8 207.337 52.336 206.057 51.856C204.777 51.344 203.673 50.56 202.745 49.504C201.817 48.416 201.353 46.96 201.353 45.136C201.353 43.6 201.769 42.208 202.601 40.96C203.465 39.68 204.713 38.672 206.345 37.936C208.009 37.2 209.977 36.832 212.249 36.832C215.609 36.832 218.249 37.664 220.169 39.328C222.121 40.992 223.241 43.2 223.529 45.952H215.945C215.817 45.024 215.401 44.288 214.697 43.744C214.025 43.2 213.129 42.928 212.009 42.928C211.049 42.928 210.313 43.12 209.801 43.504C209.289 43.856 209.033 44.352 209.033 44.992C209.033 45.76 209.433 46.336 210.233 46.72C211.065 47.104 212.345 47.488 214.073 47.872C216.057 48.384 217.673 48.896 218.921 49.408C220.169 49.888 221.257 50.688 222.185 51.808C223.145 52.896 223.641 54.368 223.673 56.224C223.673 57.792 223.225 59.2 222.329 60.448C221.465 61.664 220.201 62.624 218.537 63.328C216.905 64.032 215.001 64.384 212.825 64.384Z" fill="url(#paint0_linear_124_14)"/>
<path d="M226.919 12.776C228.935 12.776 230.727 13.224 232.295 14.12C233.895 14.984 235.127 16.2 235.991 17.768C236.887 19.336 237.335 21.128 237.335 23.144C237.335 25.128 236.887 26.92 235.991 28.52C235.127 30.088 233.895 31.32 232.295 32.216C230.727 33.08 228.935 33.512 226.919 33.512C224.903 33.512 223.095 33.08 221.495 32.216C219.927 31.32 218.695 30.088 217.799 28.52C216.903 26.92 216.455 25.128 216.455 23.144C216.455 21.128 216.903 19.336 217.799 17.768C218.695 16.2 219.927 14.984 221.495 14.12C223.095 13.224 224.903 12.776 226.919 12.776ZM226.919 30.824C229.223 30.824 231.063 30.12 232.439 28.712C233.815 27.304 234.503 25.448 234.503 23.144C234.503 20.84 233.815 18.984 232.439 17.576C231.063 16.168 229.223 15.464 226.919 15.464C224.615 15.464 222.775 16.168 221.399 17.576C220.023 18.984 219.335 20.84 219.335 23.144C219.335 25.448 220.023 27.304 221.399 28.712C222.775 30.12 224.615 30.824 226.919 30.824ZM231.575 21.224C231.575 21.896 231.399 22.488 231.047 23C230.727 23.512 230.279 23.896 229.703 24.152L232.151 28.088H228.215L226.295 24.536H226.007V28.088H222.551V17.912H227.879C228.999 17.912 229.895 18.216 230.567 18.824C231.239 19.432 231.575 20.232 231.575 21.224ZM225.959 22.184H227.303C227.815 22.184 228.071 21.944 228.071 21.464C228.071 21.016 227.815 20.792 227.303 20.792H225.959V22.184Z" fill="#3468ED"/>
<defs>
<linearGradient id="paint0_linear_124_14" x1="90.9493" y1="31.2778" x2="235.042" y2="68.2416" gradientUnits="userSpaceOnUse">
<stop stop-color="#3468ED"/>
<stop offset="0.542825" stop-color="#A3C3E4"/>
<stop offset="1" stop-color="#338395"/>
</linearGradient>
</defs>
</svg>
